[img]http://img440.imageshack.us/img440/6973/idont.jpg[/img]
[code]


Thx Hive

CM8 Doing It Right The First Time 


Source: Russian DVD-R

Ja.ne.znaju.kak.ona.delaet.jeto.2011.D.DVD

Encode:

DVD had english audio on it and great quality.
added brightness,sharpness,rgb and denoise
got very nice
enjoy

Video: 720x400 @bitrate 18000 2pass
Audio: English AC3 5.1 @448
Sample: yes included

 
http://www.imdb.com/title/tt1742650/


General
Complete name                  :
Format                         : AVI
Format/Info                    : Audio Video Interleave
File size                      : 1.35 GiB
Duration                       : 1h 25mn
Overall bit rate               : 2 256 Kbps
Writing application            : Nandub v1.0rc2
Writing library                : Nandub build 1853/release

Video
ID                             : 0
Format                         : MPEG-4 Visual
Format profile                 : Advanced Simple@L5
Format settings, BVOP          : 2
Format settings, QPel          : Yes
Format settings, GMC           : No warppoints
Format settings, Matrix        : Default (H.263)
Muxing mode                    : Packed bitstream
Codec ID                       : XVID
Codec ID/Hint                  : XviD
Duration                       : 1h 25mn
Bit rate                       : 1 798 Kbps
Width                          : 720 pixels
Height                         : 400 pixels
Display aspect ratio           : 16:9
Frame rate                     : 25.000 fps
Color space                    : YUV
Chroma subsampling             : 4:2:0
Bit depth                      : 8 bits
Scan type                      : Progressive
Compression mode               : Lossy
Bits/(Pixel*Frame)             : 0.250
Stream size                    : 1.08 GiB (80%)
Writing library                : XviD 1.2.1 (UTC 2008-12-04)

Audio
ID                             : 1
Format                         : AC-3
Format/Info                    : Audio Coding 3
Mode extension                 : CM (complete main)
Codec ID                       : 2000
Duration                       : 1h 25mn
Bit rate mode                  : Constant
Bit rate                       : 448 Kbps
Channel(s)                     : 6 channels
Channel positions              : Front: L C R, Side: L R, LFE
Sampling rate                  : 48.0 KHz
Bit depth                      : 16 bits
Compression mode               : Lossy
Stream size                    : 275 MiB (20%)
Alignment                      : Split accross interleaves
Interleave, duration           : 40 ms (1.00 video frame)
Interleave, preload duration   : 500 ms


Plot:

A comedy centered on the life of Kate Reddy, a finance executive who is the breadwinner for her husband and two kids.  


Cast:

Sarah Jessica Parker	... Kate Reddy
Pierce Brosnan	... Jack Abelhammer
Greg Kinnear	... Richard Reddy
Christina Hendricks	... Allison Henderson
Kelsey Grammer	... Clark Cooper

[/code]
Screens:
[img]http://img94.imageshack.us/img94/8528/23081757.png[/img]
[img]http://img708.imageshack.us/img708/6856/39970222.png[/img]
[img]http://img841.imageshack.us/img841/8840/16132487.png[/img]
[img]http://img32.imageshack.us/img32/9440/68267318.png[/img]
[img]http://img830.imageshack.us/img830/3741/69978585.png[/img]